<svg width="24" height="24" viewBox="0 0 24 24" fill="none" xmlns="http://www.w3.org/2000/svg">
<path d="M12.0007 0.520752C9.73029 0.520752 7.51091 1.19399 5.62317 2.45534C3.73543 3.71669 2.26412 5.50949 1.39529 7.60703C0.526458 9.70457 0.299132 12.0126 0.742058 14.2394C1.18498 16.4661 2.27827 18.5115 3.88366 20.1169C5.48905 21.7223 7.53444 22.8156 9.76118 23.2585C11.9879 23.7014 14.296 23.4741 16.3935 22.6053C18.4911 21.7364 20.2839 20.2651 21.5452 18.3774C22.8066 16.4897 23.4798 14.2703 23.4798 11.9999C23.4798 8.95545 22.2704 6.03568 20.1176 3.88292C17.9649 1.73016 15.0451 0.520752 12.0007 0.520752ZM12.0007 21.8392C10.0546 21.8392 8.1523 21.2621 6.53424 20.181C4.91618 19.0998 3.65505 17.5631 2.91034 15.7652C2.16563 13.9674 1.97078 11.989 2.35043 10.0804C2.73008 8.17173 3.66718 6.41854 5.04323 5.04249C6.41928 3.66644 8.17247 2.72934 10.0811 2.34969C11.9897 1.97004 13.9681 2.16489 15.766 2.9096C17.5639 3.65432 19.1006 4.91544 20.1817 6.5335C21.2629 8.15157 21.8399 10.0539 21.8399 11.9999C21.8399 14.6095 20.8033 17.1121 18.9581 18.9573C17.1129 20.8026 14.6102 21.8392 12.0007 21.8392Z" fill="#F4F9F9"/>
<path d="M12.0014 19.3793C12.6807 19.3793 13.2313 18.8286 13.2313 18.1493C13.2313 17.4701 12.6807 16.9194 12.0014 16.9194C11.3221 16.9194 10.7715 17.4701 10.7715 18.1493C10.7715 18.8286 11.3221 19.3793 12.0014 19.3793Z" fill="#F4F9F9"/>
<path d="M12.82 5.44044H11.5901C11.1053 5.43936 10.625 5.53406 10.1769 5.7191C9.72871 5.90414 9.32153 6.17589 8.97869 6.51873C8.63585 6.86156 8.36411 7.26875 8.17906 7.71689C7.99402 8.16504 7.89932 8.64532 7.9004 9.13017C7.9004 9.35659 8.08395 9.54014 8.31037 9.54014H9.13031C9.35673 9.54014 9.54028 9.35659 9.54028 9.13017C9.54028 8.58652 9.75625 8.06513 10.1407 7.68071C10.5251 7.29629 11.0465 7.08032 11.5901 7.08032H12.82C13.3637 7.08032 13.8851 7.29629 14.2695 7.68071C14.6539 8.06513 14.8699 8.58652 14.8699 9.13017C14.8699 9.67382 14.6539 10.1952 14.2695 10.5796C13.8851 10.9641 13.3637 11.18 12.82 11.18H11.6802C11.404 11.18 11.1802 11.4039 11.1802 11.68V14.3698C11.1802 14.6459 11.404 14.8698 11.6802 14.8698H12.32C12.5962 14.8698 12.82 14.6459 12.82 14.3698V13.3199C12.82 13.0438 13.0449 12.8234 13.3185 12.7861C14.113 12.6778 14.8557 12.3126 15.4291 11.7392C16.121 11.0472 16.5098 10.1087 16.5098 9.13017C16.5098 8.15159 16.121 7.2131 15.4291 6.52114C14.7371 5.82918 13.7986 5.44044 12.82 5.44044Z" fill="#F4F9F9"/>
</svg>
