<svg width="20" height="24" viewBox="0 0 20 24" fill="none" xmlns="http://www.w3.org/2000/svg">
<path d="M10.25 0.749756C7.86306 0.749756 5.57387 1.69797 3.88604 3.38579C2.19821 5.07362 1.25 7.36281 1.25 9.74976C1.25 11.8783 1.70225 13.271 2.9375 14.8123L10.25 23.2498L17.5625 14.8123C18.7978 13.271 19.25 11.8783 19.25 9.74976C19.25 7.36281 18.3018 5.07362 16.614 3.38579C14.9262 1.69797 12.637 0.749756 10.25 0.749756Z" fill="#FF6B42" stroke="#FF6B42" stroke-width="1.5" stroke-linecap="round" stroke-linejoin="round"/>
<path d="M10.25 13.1248C12.114 13.1248 13.625 11.6137 13.625 9.74976C13.625 7.88579 12.114 6.37476 10.25 6.37476C8.38604 6.37476 6.875 7.88579 6.875 9.74976C6.875 11.6137 8.38604 13.1248 10.25 13.1248Z" fill="#0E0E0E" stroke="#0E0E0E" stroke-width="1.5" stroke-linecap="round" stroke-linejoin="round"/>
</svg>
