<svg width="30" height="26" viewBox="0 0 30 26" fill="none" xmlns="http://www.w3.org/2000/svg">
<path d="M15 1C13.9595 1 13.2211 1.63244 12.6291 2.37824C12.0535 3.10322 11.4458 4.1559 10.7117 5.42747L10.6699 5.5L3.74167 17.5L3.69978 17.5726C2.96561 18.8441 2.35783 19.8967 2.01775 20.7576C1.6679 21.6432 1.48937 22.5989 2.00962 23.5C2.52987 24.4011 3.44675 24.7243 4.38867 24.8642C5.30427 25.0001 6.51976 25 7.98799 25H8.07179H21.9282H22.012C23.4802 25 24.6957 25.0001 25.6113 24.8642C26.5532 24.7243 27.4701 24.4011 27.9904 23.5C28.5106 22.5989 28.3321 21.6432 27.9823 20.7576C27.6422 19.8967 27.0344 18.844 26.3002 17.5725L26.2583 17.5L19.3301 5.5L19.2883 5.42747C18.5542 4.1559 17.9465 3.10322 17.3709 2.37824C16.7789 1.63244 16.0405 1 15 1Z" fill="#0E0E0E"/>
<path d="M15 1C13.9595 1 13.2211 1.63244 12.6291 2.37824C12.0535 3.10322 11.4458 4.1559 10.7117 5.42747L10.6699 5.5L3.74167 17.5L3.69978 17.5726C2.96561 18.8441 2.35783 19.8967 2.01775 20.7576C1.6679 21.6432 1.48937 22.5989 2.00962 23.5C2.52987 24.4011 3.44675 24.7243 4.38867 24.8642C5.30427 25.0001 6.51976 25 7.98799 25H8.07179H21.9282H22.012C23.4802 25 24.6957 25.0001 25.6113 24.8642C26.5532 24.7243 27.4701 24.4011 27.9904 23.5C28.5106 22.5989 28.3321 21.6432 27.9823 20.7576C27.6422 19.8967 27.0344 18.844 26.3002 17.5725L26.2583 17.5L19.3301 5.5L19.2883 5.42747C18.5542 4.1559 17.9465 3.10322 17.3709 2.37824C16.7789 1.63244 16.0405 1 15 1Z" fill="#28CDD6" fill-opacity="0.2"/>
<path d="M15 1C13.9595 1 13.2211 1.63244 12.6291 2.37824C12.0535 3.10322 11.4458 4.1559 10.7117 5.42747L10.6699 5.5L3.74167 17.5L3.69978 17.5726C2.96561 18.8441 2.35783 19.8967 2.01775 20.7576C1.6679 21.6432 1.48937 22.5989 2.00962 23.5C2.52987 24.4011 3.44675 24.7243 4.38867 24.8642C5.30427 25.0001 6.51976 25 7.98799 25H8.07179H21.9282H22.012C23.4802 25 24.6957 25.0001 25.6113 24.8642C26.5532 24.7243 27.4701 24.4011 27.9904 23.5C28.5106 22.5989 28.3321 21.6432 27.9823 20.7576C27.6422 19.8967 27.0344 18.844 26.3002 17.5725L26.2583 17.5L19.3301 5.5L19.2883 5.42747C18.5542 4.1559 17.9465 3.10322 17.3709 2.37824C16.7789 1.63244 16.0405 1 15 1Z" stroke="#28CDD6" stroke-width="2"/>
</svg>
