<svg width="22" height="22" viewBox="0 0 22 22" fill="none" xmlns="http://www.w3.org/2000/svg">
<path d="M9.08528 17.5021C10.9336 17.5021 12.638 16.9044 14.0325 15.9083L19.2786 21.1544C19.5221 21.3979 19.8431 21.5197 20.1862 21.5197C20.9056 21.5197 21.4147 20.9663 21.4147 20.258C21.4147 19.9259 21.304 19.605 21.0605 19.3725L15.8476 14.1486C16.9433 12.7098 17.5963 10.9279 17.5963 8.99104C17.5963 4.3094 13.7669 0.47998 9.08528 0.47998C4.41471 0.47998 0.574219 4.29834 0.574219 8.99104C0.574219 13.6727 4.40364 17.5021 9.08528 17.5021ZM9.08528 15.6649C5.43294 15.6649 2.41146 12.6434 2.41146 8.99104C2.41146 5.3387 5.43294 2.31722 9.08528 2.31722C12.7376 2.31722 15.7591 5.3387 15.7591 8.99104C15.7591 12.6434 12.7376 15.6649 9.08528 15.6649Z" fill="#F4F9F9"/>
</svg>
