<svg width="28" height="28" viewBox="0 0 28 28" fill="none" xmlns="http://www.w3.org/2000/svg">
<path d="M25.6673 9.26248V9.34457C25.6673 10.3116 25.6673 10.7963 25.4258 11.1921C25.1843 11.5879 24.7445 11.8229 23.8672 12.2941L22.942 12.7889C23.579 10.7108 23.7925 8.47759 23.8707 6.56821L23.8823 6.3197L23.8847 6.26123C24.6442 6.51536 25.0712 6.7054 25.3372 7.06074C25.6673 7.50266 25.6673 8.08964 25.6673 9.26248ZM2.33398 9.26248V9.34457C2.33398 10.3116 2.33398 10.7963 2.57548 11.1921C2.81698 11.5879 3.25682 11.8229 4.13415 12.2941L5.06048 12.7889C4.42232 10.7108 4.20882 8.47759 4.13065 6.56821L4.11898 6.3197L4.11782 6.26123C3.35715 6.51536 2.93015 6.7054 2.66415 7.06074C2.33398 7.50266 2.33398 8.09077 2.33398 9.26248Z" fill="#F4F9F9"/>
<path fill-rule="evenodd" clip-rule="evenodd" d="M14.0003 2.33352C16.0816 2.33352 17.7955 2.51006 19.1068 2.72371C20.4356 2.93961 21.0995 3.04756 21.6548 3.70651C22.2101 4.36546 22.1798 5.07726 22.1215 6.50086C21.9208 11.3912 20.8265 17.4983 14.8753 18.0381V22.012H16.5436C16.8132 22.0122 17.0745 22.1023 17.2829 22.2671C17.4913 22.432 17.6341 22.6613 17.687 22.9161L17.9086 23.9799H21.0003C21.2324 23.9799 21.4549 24.0687 21.619 24.2269C21.7831 24.385 21.8753 24.5995 21.8753 24.8232C21.8753 25.0469 21.7831 25.2614 21.619 25.4196C21.4549 25.5777 21.2324 25.6666 21.0003 25.6666H7.00029C6.76823 25.6666 6.54567 25.5777 6.38158 25.4196C6.21748 25.2614 6.12529 25.0469 6.12529 24.8232C6.12529 24.5995 6.21748 24.385 6.38158 24.2269C6.54567 24.0687 6.76823 23.9799 7.00029 23.9799H10.092L10.3136 22.9161C10.3665 22.6613 10.5092 22.432 10.7177 22.2671C10.9261 22.1023 11.1874 22.0122 11.457 22.012H13.1253V18.0381C7.17529 17.4983 6.08096 11.3901 5.88029 6.50086C5.82079 5.07726 5.79163 4.36434 6.34696 3.70651C6.90113 3.04756 7.56496 2.93961 8.89379 2.72371C10.5818 2.45707 12.2898 2.32655 14.0003 2.33352ZM15.111 7.05523L14.9966 6.85732C14.5533 6.0893 14.3316 5.70697 14.0003 5.70697C13.669 5.70697 13.4473 6.0893 13.004 6.85732L12.8896 7.05523C12.7636 7.27338 12.7006 7.38133 12.6026 7.4533C12.5035 7.52526 12.381 7.55225 12.136 7.6051L11.9143 7.65458C11.0533 7.84237 10.6228 7.9357 10.5201 8.25281C10.4175 8.57104 10.7115 8.90163 11.2983 9.56283L11.45 9.73375C11.6168 9.92154 11.7008 10.0149 11.7381 10.1318C11.7755 10.2488 11.7626 10.3736 11.7381 10.6243L11.7148 10.8526C11.6261 11.7353 11.5818 12.1773 11.849 12.3729C12.1173 12.5686 12.521 12.3898 13.3271 12.0322L13.5348 11.94C13.7646 11.8388 13.879 11.7882 14.0003 11.7882C14.1216 11.7882 14.236 11.8388 14.4658 11.94L14.6735 12.0322C15.4796 12.3909 15.8833 12.5686 16.1516 12.3729C16.42 12.1773 16.3745 11.7353 16.2858 10.8526L16.2625 10.6243C16.238 10.3736 16.2251 10.2488 16.2625 10.1318C16.2998 10.016 16.3838 9.92154 16.5506 9.73375L16.7023 9.56283C17.2891 8.90163 17.5831 8.57104 17.4805 8.25281C17.3778 7.9357 16.9473 7.84237 16.0863 7.65458L15.8646 7.6051C15.6196 7.55225 15.4971 7.52639 15.398 7.4533C15.3 7.38133 15.237 7.27338 15.111 7.05523Z" fill="#F4F9F9"/>
</svg>
