<svg width="24" height="23" viewBox="0 0 24 23" fill="none" xmlns="http://www.w3.org/2000/svg">
<path d="M3.48737 22.0877L3.51653 22.0819C6.18528 21.5525 7.81569 20.854 8.57403 20.4704C9.69051 20.7682 10.8412 20.9182 11.9967 20.9167C18.4396 20.9167 23.6634 16.3463 23.6634 10.7083C23.6634 5.07042 18.4396 0.5 11.9967 0.5C5.55382 0.5 0.330078 5.07042 0.330078 10.7083C0.330078 13.275 1.41362 15.6229 3.20299 17.4167C3.0778 18.5689 2.82142 19.703 2.43883 20.7971L2.43445 20.8131C2.32572 21.1265 2.20705 21.4363 2.07862 21.7421C1.96341 22.0133 2.18653 22.3167 2.47674 22.27C2.81458 22.2147 3.1515 22.1539 3.48737 22.0877ZM4.65403 17.5552C4.67446 17.3417 4.64754 17.1263 4.5752 16.9244C4.50285 16.7225 4.38686 16.539 4.23549 16.3871C2.68966 14.8354 1.78841 12.8492 1.78841 10.7083C1.78841 6.05333 6.16924 1.95833 11.9967 1.95833C17.8242 1.95833 22.2051 6.05333 22.2051 10.7083C22.2051 15.3648 17.8242 19.4583 11.9967 19.4583C10.9688 19.4598 9.94502 19.3265 8.95173 19.0617C8.60462 18.9687 8.23538 19.0071 7.91486 19.1696C7.35049 19.4554 6.10653 20.0008 4.07362 20.4719C4.35723 19.5198 4.55154 18.5433 4.65403 17.5552Z" fill="#F4F9F9" stroke="#F4F9F9" stroke-width="0.2"/>
<path d="M7.62174 10.7083C7.62174 11.0951 7.4681 11.466 7.19461 11.7395C6.92112 12.013 6.55018 12.1667 6.16341 12.1667C5.77664 12.1667 5.4057 12.013 5.13221 11.7395C4.85872 11.466 4.70508 11.0951 4.70508 10.7083C4.70508 10.3216 4.85872 9.95063 5.13221 9.67714C5.4057 9.40365 5.77664 9.25 6.16341 9.25C6.55018 9.25 6.92112 9.40365 7.19461 9.67714C7.4681 9.95063 7.62174 10.3216 7.62174 10.7083ZM13.4551 10.7083C13.4551 11.0951 13.3014 11.466 13.0279 11.7395C12.7544 12.013 12.3835 12.1667 11.9967 12.1667C11.61 12.1667 11.239 12.013 10.9655 11.7395C10.6921 11.466 10.5384 11.0951 10.5384 10.7083C10.5384 10.3216 10.6921 9.95063 10.9655 9.67714C11.239 9.40365 11.61 9.25 11.9967 9.25C12.3835 9.25 12.7544 9.40365 13.0279 9.67714C13.3014 9.95063 13.4551 10.3216 13.4551 10.7083ZM17.8301 12.1667C18.2168 12.1667 18.5878 12.013 18.8613 11.7395C19.1347 11.466 19.2884 11.0951 19.2884 10.7083C19.2884 10.3216 19.1347 9.95063 18.8613 9.67714C18.5878 9.40365 18.2168 9.25 17.8301 9.25C17.4433 9.25 17.0724 9.40365 16.7989 9.67714C16.5254 9.95063 16.3717 10.3216 16.3717 10.7083C16.3717 11.0951 16.5254 11.466 16.7989 11.7395C17.0724 12.013 17.4433 12.1667 17.8301 12.1667Z" fill="#F4F9F9" stroke="#F4F9F9" stroke-width="0.2"/>
</svg>
