<svg width="24" height="22" viewBox="0 0 24 22" fill="none" xmlns="http://www.w3.org/2000/svg">
<rect x="1.49805" y="5.16675" width="21" height="14" fill="#F4F9F9"/>
<path d="M21.8006 4.23333H3.13398C2.88645 4.23333 2.64905 4.135 2.47402 3.95997C2.29898 3.78493 2.20065 3.54754 2.20065 3.3C2.20065 3.05246 2.29898 2.81507 2.47402 2.64003C2.64905 2.465 2.88645 2.36667 3.13398 2.36667H19.0006C19.2482 2.36667 19.4856 2.26833 19.6606 2.0933C19.8356 1.91827 19.934 1.68087 19.934 1.43333C19.934 1.1858 19.8356 0.948401 19.6606 0.773367C19.4856 0.598333 19.2482 0.5 19.0006 0.5H3.13398C2.39138 0.5 1.67919 0.794999 1.15408 1.3201C0.628983 1.8452 0.333984 2.55739 0.333984 3.3V18.2333C0.333984 18.9759 0.628983 19.6881 1.15408 20.2132C1.67919 20.7383 2.39138 21.0333 3.13398 21.0333H21.8006C22.2957 21.0333 22.7705 20.8367 23.1206 20.4866C23.4706 20.1365 23.6673 19.6617 23.6673 19.1667V6.1C23.6673 5.60493 23.4706 5.13014 23.1206 4.78007C22.7705 4.43 22.2957 4.23333 21.8006 4.23333ZM21.8006 19.1667H3.13398C2.88645 19.1667 2.64905 19.0683 2.47402 18.8933C2.29898 18.7183 2.20065 18.4809 2.20065 18.2333V5.94017C2.50034 6.0464 2.81602 6.10046 3.13398 6.1H21.8006V19.1667ZM16.2006 12.1667C16.2006 11.8898 16.2827 11.6191 16.4366 11.3889C16.5904 11.1586 16.8091 10.9792 17.0649 10.8732C17.3207 10.7673 17.6022 10.7395 17.8738 10.7936C18.1453 10.8476 18.3948 10.9809 18.5906 11.1767C18.7864 11.3725 18.9197 11.622 18.9737 11.8935C19.0277 12.1651 19 12.4466 18.8941 12.7024C18.7881 12.9582 18.6087 13.1769 18.3784 13.3307C18.1482 13.4846 17.8775 13.5667 17.6006 13.5667C17.2293 13.5667 16.8732 13.4192 16.6107 13.1566C16.3481 12.8941 16.2006 12.538 16.2006 12.1667Z" fill="#F4F9F9"/>
<ellipse cx="17.5423" cy="12.1666" rx="1.45833" ry="1.45833" fill="#F4F9F9"/>
</svg>
